<?xml version="1.0" encoding="utf-8"?>
<!-- Generator: Adobe Illustrator 27.5.0, SVG Export Plug-In . SVG Version: 6.00 Build 0)  -->
<svg version="1.1" id="Layer_1" xmlns="http://www.w3.org/2000/svg" xmlns:xlink="http://www.w3.org/1999/xlink" x="0px" y="0px"
	 viewBox="0 0 450 450" style="enable-background:new 0 0 450 450;" xml:space="preserve">
<g>
	<path d="M51.335,92.265c-3.708,0-6.724-3.017-6.724-6.725s3.017-6.725,6.724-6.725c3.709,0,6.726,3.017,6.726,6.725
		S55.044,92.265,51.335,92.265z"/>
	<path d="M81.526,92.265c-3.708,0-6.726-3.017-6.726-6.725s3.017-6.725,6.726-6.725c3.708,0,6.724,3.017,6.724,6.725
		S85.234,92.265,81.526,92.265z"/>
	<path d="M81.526,86.577H52.833c-0.803,0-1.567-0.388-2.044-1.037c-0.478-0.655-0.614-1.502-0.368-2.269l3.853-9.469
		c0.216-0.53,0.82-0.785,1.352-0.569c0.53,0.216,0.785,0.821,0.569,1.352l-3.826,9.394c-0.018,0.065,0.007,0.218,0.094,0.337
		c0.087,0.118,0.224,0.188,0.372,0.188h28.693c0.573,0,1.037,0.464,1.037,1.037C82.563,86.113,82.099,86.577,81.526,86.577z"/>
	<g>
		<path d="M90.377,48.881c-0.475-0.648-1.239-1.035-2.043-1.035l-43.214,0.015l-2.031-4.652c-0.165-0.378-0.538-0.622-0.95-0.622
			h-9.604c-0.572,0-1.037,0.464-1.037,1.037c0,0.572,0.464,1.037,1.037,1.037h8.925l12.674,29.038
			c0.399,0.931,1.312,1.532,2.326,1.532h24.83c1.109,0,2.08-0.711,2.417-1.771l7.043-22.316
			C90.993,50.375,90.853,49.529,90.377,48.881z M79.173,69.229H57.973c-0.573,0-1.037-0.464-1.037-1.037
			c0-0.572,0.464-1.037,1.037-1.037h21.201c0.573,0,1.037,0.464,1.037,1.037C80.21,68.765,79.746,69.229,79.173,69.229z
			 M80.983,62.682H56.164c-0.572,0-1.037-0.464-1.037-1.037c0-0.572,0.464-1.037,1.037-1.037h24.819
			c0.572,0,1.037,0.464,1.037,1.037C82.02,62.217,81.555,62.682,80.983,62.682z M82.467,56.134H54.678
			c-0.573,0-1.037-0.464-1.037-1.037c0-0.573,0.464-1.037,1.037-1.037h27.789c0.573,0,1.037,0.464,1.037,1.037
			C83.504,55.669,83.04,56.134,82.467,56.134z"/>
	</g>
	<path d="M34.488,43.693c0,0.903-0.732,1.635-1.635,1.635c-0.903,0-1.635-0.732-1.635-1.635c0-0.903,0.732-1.635,1.635-1.635
		C33.756,42.058,34.488,42.79,34.488,43.693z"/>
</g>
<g>
	<g>
		<path d="M31.09,373.754v28.703H85.9v-28.703H31.09z M83.225,394c-3.278,0-5.937,2.659-5.937,5.938h-37.59
			c0-3.278-2.655-5.938-5.934-5.938v-11.789c3.278,0,5.934-2.659,5.934-5.936h37.59c0,3.276,2.659,5.936,5.937,5.936V394z"/>
		<g>
			<path d="M54.51,383.974c-0.014,0.093-0.022,0.189-0.022,0.286c0,1.288,1.257,2.379,2.963,2.699v-5.401
				C55.874,381.853,54.675,382.807,54.51,383.974z"/>
			<path d="M59.543,394.653c1.703-0.321,2.96-1.409,2.96-2.702c0,0,0-0.004,0-0.006c-0.008-1.289-1.263-2.371-2.96-2.694V394.653z"
				/>
			<path d="M58.495,376.275c-5.561,0-10.076,5.296-10.076,11.828c0,6.536,4.515,11.834,10.076,11.834
				c5.564,0,10.076-5.298,10.076-11.834C68.571,381.571,64.059,376.275,58.495,376.275z M64.594,391.951
				c0,2.413-2.186,4.422-5.051,4.822v0.268c0,0.579-0.471,1.048-1.048,1.048c-0.575,0-1.044-0.469-1.044-1.048v-0.268
				c-2.869-0.4-5.056-2.409-5.056-4.822c0-0.576,0.469-1.044,1.046-1.044c0.577,0,1.046,0.468,1.046,1.044
				c0,1.293,1.257,2.381,2.963,2.702v-5.574c-2.869-0.399-5.056-2.409-5.056-4.819c0-0.34,0.042-0.668,0.122-0.986
				c0.505-1.957,2.468-3.493,4.934-3.836v-0.268c0-0.578,0.469-1.046,1.044-1.046c0.577,0,1.048,0.468,1.048,1.046v0.268
				c2.865,0.399,5.051,2.409,5.051,4.822c0,0.573-0.468,1.044-1.043,1.044c-0.582,0-1.047-0.471-1.047-1.044
				c0-1.292-1.257-2.381-2.96-2.702v5.573C62.408,387.531,64.594,389.541,64.594,391.951z"/>
		</g>
	</g>
	<g>
		<path d="M87.391,399.179l8.207-18.23l-8.207-3.693v8.477c0.581,0.769,1.356,1.407,2.297,1.831l-2.297,5.102V399.179z"/>
		<polygon points="78.07,404.535 83.815,407.123 84.979,404.535 		"/>
		<path d="M42.489,371.918l2.098-4.661c2.99,1.348,6.503,0.013,7.848-2.975l16.962,7.636h6.144l-29.919-13.471l-6.064,13.471H42.489
			z"/>
	</g>
</g>
<g>
	<g>
		<path d="M50.933,166.223H36.869c-0.78,0-0.97,0.193-0.97,0.973v26.905c0,0.774,0.631,1.409,1.41,1.409h13.184
			c0.778,0,1.411-0.635,1.411-1.409v-26.905C51.904,166.417,51.713,166.223,50.933,166.223z M43.902,173.068
			c-1.089,0-1.971-0.882-1.969-1.967c0-1.086,0.88-1.967,1.967-1.967c1.088,0,1.969,0.881,1.969,1.967
			C45.869,172.186,44.988,173.068,43.902,173.068z"/>
		<path d="M43.902,171.675c-0.91,0-1.369-1.176-1.519-1.563c-0.11-0.284,0.03-0.604,0.314-0.714c0.284-0.11,0.604,0.029,0.714,0.313
			c0.295,0.754,0.517,0.863,0.519,0.864c0.556-0.251,1.648-4.064,1.648-10.772c0-6.709-1.093-10.526-1.704-10.777
			c-0.558,0.25-1.651,4.063-1.651,10.774c0,1.993,0.216,4.932,0.42,6.685c0.035,0.303-0.182,0.577-0.484,0.612
			c-0.303,0.043-0.577-0.182-0.612-0.485c-0.207-1.784-0.426-4.777-0.426-6.812c0-0.484,0.032-11.873,2.782-11.873
			c2.748,0,2.78,11.391,2.78,11.876C46.682,160.288,46.65,171.675,43.902,171.675z"/>
	</g>
	<g>
		<path d="M65.92,166.223h-5.153c0,0-5.424,6.881-5.424,7.659v20.219c0,0.774,0.63,1.409,1.41,1.409h13.185
			c0.778,0,1.409-0.635,1.409-1.409v-20.219C71.346,173.105,65.92,166.223,65.92,166.223z M63.344,173.068
			c-1.087,0-1.969-0.882-1.967-1.967c0-1.086,0.881-1.967,1.967-1.967c1.087,0,1.967,0.881,1.967,1.967
			C65.311,172.186,64.431,173.068,63.344,173.068z"/>
		<path d="M63.344,171.675c-0.91,0-1.368-1.176-1.518-1.563c-0.11-0.284,0.03-0.604,0.314-0.714c0.284-0.11,0.604,0.029,0.714,0.314
			c0.294,0.754,0.515,0.862,0.517,0.864c0.558-0.249,1.65-4.063,1.65-10.772c0-6.712-1.092-10.527-1.705-10.777
			c-0.557,0.251-1.649,4.066-1.649,10.774c0,1.98,0.215,4.922,0.417,6.686c0.035,0.303-0.182,0.577-0.485,0.611
			c-0.3,0.043-0.576-0.183-0.611-0.485c-0.206-1.794-0.425-4.791-0.425-6.812c0-0.484,0.032-11.873,2.78-11.873
			c2.749,0,2.781,11.391,2.781,11.876C66.124,160.288,66.093,171.675,63.344,171.675z"/>
	</g>
	<g>
		<path d="M82.788,166.223c-4.419,0-8.002,3.584-8.002,8.003c0,0.111,0,20.164,0,20.164c0,0.619,0.499,1.12,1.115,1.12h13.776
			c0.616,0,1.112-0.501,1.112-1.12c0,0,0-20.054,0-20.164C90.789,169.807,87.206,166.223,82.788,166.223z M82.788,173.064
			c-1.071,0-1.939-0.87-1.939-1.941c0-1.07,0.868-1.939,1.939-1.939c1.072,0,1.941,0.869,1.941,1.939
			C84.729,172.195,83.859,173.064,82.788,173.064z"/>
		<path d="M82.788,171.675c-0.909,0-1.368-1.176-1.518-1.563c-0.11-0.284,0.03-0.604,0.313-0.714
			c0.283-0.11,0.604,0.029,0.714,0.313c0.294,0.754,0.517,0.863,0.519,0.864c0.556-0.25,1.648-4.064,1.648-10.772
			c0-6.712-1.093-10.527-1.704-10.777c-0.557,0.251-1.65,4.065-1.65,10.774c0,1.967,0.216,4.913,0.419,6.686
			c0.035,0.303-0.183,0.577-0.485,0.611c-0.309,0.037-0.576-0.183-0.61-0.485c-0.207-1.804-0.427-4.804-0.427-6.812
			c0-0.484,0.032-11.873,2.781-11.873s2.78,11.391,2.78,11.876C85.568,160.288,85.537,171.675,82.788,171.675z"/>
	</g>
</g>
<g>
	<rect x="362.417" y="365.901" width="4.522" height="37.825"/>
	<rect x="410.088" y="365.901" width="4.523" height="37.825"/>
	<rect x="371.851" y="365.901" width="1.545" height="30.837"/>
	<rect x="379.905" y="365.901" width="1.325" height="30.837"/>
	<rect x="385.727" y="365.901" width="5.574" height="30.837"/>
	<rect x="395.416" y="365.901" width="2.084" height="30.837"/>
	<rect x="402.996" y="365.901" width="2.816" height="30.837"/>
</g>
<g>
	<path d="M60.604,295.796c-14.357,0-25.998,4.089-25.998,9.132h51.997C86.603,299.885,74.963,295.796,60.604,295.796z"/>
	<g>
		<path style="fill:#FFFFFF;" d="M80.25,276.152c0,10.848-8.796,19.644-19.646,19.644c-10.849,0-19.645-8.796-19.645-19.644
			c0-10.849,8.796-19.645,19.645-19.645C71.454,256.508,80.25,265.304,80.25,276.152z"/>
		<path d="M60.604,296.737c-11.352,0-20.586-9.234-20.586-20.585c0-11.352,9.234-20.586,20.586-20.586s20.586,9.234,20.586,20.586
			C81.191,287.503,71.956,296.737,60.604,296.737z M60.604,257.449c-10.313,0-18.704,8.391-18.704,18.703
			s8.391,18.703,18.704,18.703c10.313,0,18.704-8.391,18.704-18.703S70.918,257.449,60.604,257.449z"/>
	</g>
	<path d="M60.605,256.508c-10.647,0-19.278,8.163-19.278,18.228c0,0.061,0.009,0.119,0.01,0.181
		c2.807,1.381,5.991,2.177,9.376,2.177c7.633,0,14.274-3.985,17.748-9.873c2.638,5.667,6.673,9.434,11.247,9.833
		c0.103-0.762,0.174-1.531,0.174-2.317C79.883,264.671,71.251,256.508,60.605,256.508z"/>
	<g>
		<path d="M55.791,278.689c0,1.859-0.895,3.359-1.999,3.359c-1.104,0-1.999-1.5-1.999-3.359c0-1.855,0.896-3.36,1.999-3.36
			C54.896,275.328,55.791,276.833,55.791,278.689z"/>
		<path d="M69.416,278.689c0,1.859-0.895,3.359-2,3.359c-1.103,0-1.998-1.5-1.998-3.359c0-1.855,0.895-3.36,1.998-3.36
			C68.521,275.328,69.416,276.833,69.416,278.689z"/>
	</g>
	<path d="M54.889,288.685c-6.501,0-12.019-0.356-15.286-3.6c-2.019-2.004-3-4.926-3-8.933c0-13.235,10.767-24.004,24.002-24.004
		s24.002,10.769,24.002,24.004c0,0.52-0.421,0.94-0.941,0.94c-0.519,0-0.941-0.421-0.941-0.94c0-12.198-9.923-22.121-22.12-22.121
		c-12.197,0-22.12,9.923-22.12,22.121c0,3.479,0.799,5.965,2.444,7.597c3.163,3.14,9.43,3.089,16.691,3.04
		c0.977-0.008,1.973-0.015,2.984-0.015c0.52,0,0.941,0.421,0.941,0.941c0,0.52-0.421,0.941-0.941,0.941
		c-1.006,0-1.998,0.008-2.97,0.015C56.703,288.678,55.786,288.685,54.889,288.685z"/>
	<g>
		<g>
			<path d="M81.712,266.553v21.077c2.71,0,4.905-4.718,4.905-10.537C86.617,271.272,84.421,266.553,81.712,266.553z"/>
			<path d="M39.497,286.689v-21.077c-2.708,0-4.904,4.722-4.904,10.541C34.593,281.971,36.79,286.689,39.497,286.689z"/>
		</g>
		<path d="M64.633,287.742c0,1.054-1.803,1.907-4.028,1.907c-2.224,0-4.028-0.854-4.028-1.907c0-1.05,1.804-1.903,4.028-1.903
			C62.83,285.839,64.633,286.692,64.633,287.742z"/>
	</g>
</g>
<g>
	<g>
		<g>
			<g>
				<g>
					<path d="M278.059,378.897L278.059,378.897l-19.703-0.004c-0.504,0-0.913-0.407-0.913-0.911l-0.003-7.272
						c0-0.242,0.096-0.475,0.267-0.647c0.172-0.171,0.403-0.267,0.646-0.267h19.705c0.504,0,0.913,0.408,0.913,0.912l0.001,7.276
						c0,0.241-0.096,0.474-0.267,0.645C278.532,378.801,278.301,378.897,278.059,378.897z"/>
					<path d="M301.896,378.9L301.896,378.9l-19.707-0.004c-0.504,0-0.912-0.409-0.912-0.912v-7.272c0-0.505,0.408-0.913,0.912-0.913
						h19.704c0.504,0,0.913,0.408,0.913,0.913l0.002,7.275c0,0.242-0.096,0.475-0.267,0.646
						C302.37,378.804,302.139,378.9,301.896,378.9z"/>
				</g>
			</g>
		</g>
		<g>
			<g>
				<g>
					<path d="M278.059,408.094L278.059,408.094l-18.791-0.003c-0.504,0-0.912-0.408-0.912-0.912l-0.004-24.608
						c0-0.242,0.097-0.475,0.267-0.646c0.171-0.172,0.402-0.268,0.645-0.268h18.793c0.504,0,0.913,0.408,0.913,0.912l0.001,24.612
						c0,0.241-0.096,0.474-0.267,0.645C278.532,407.998,278.301,408.094,278.059,408.094z"/>
					<path d="M300.984,408.098L300.984,408.098l-18.795-0.004c-0.504,0-0.912-0.408-0.912-0.912v-24.608
						c0-0.505,0.408-0.913,0.912-0.913h18.792c0.504,0,0.912,0.408,0.912,0.913l0.003,24.612c0,0.241-0.097,0.474-0.268,0.645
						S301.227,408.098,300.984,408.098z"/>
				</g>
			</g>
		</g>
		<g>
			<path d="M268.183,366.636c1.219,1.219,2.456,2.267,3.665,3.148h16.078c1.208-0.881,2.445-1.928,3.664-3.146
				c4.398-4.4,7.659-10.022,5.025-12.661c-0.438-0.436-1.225-0.955-2.496-0.955c-2.578,0-6.472,2.293-10.161,5.984
				c-1.68,1.679-3.051,3.395-4.067,5.015c-1.066-1.7-2.493-3.438-4.074-5.019c-3.692-3.689-7.586-5.981-10.162-5.981
				c-1.276,0-2.063,0.521-2.494,0.956c-0.914,0.911-1.64,2.718,0.094,6.15C264.291,362.183,266.042,364.494,268.183,366.636z
				 M286.661,361.711c2.997-2.998,5.732-4.521,7.049-4.811c-0.286,1.161-1.673,3.882-4.825,7.034
				c-2.949,2.946-5.644,4.469-7.028,4.792C282.165,367.397,283.689,364.683,286.661,361.711z M273.111,361.707
				c3.153,3.154,4.54,5.876,4.826,7.036c-1.316-0.29-4.052-1.814-7.051-4.812c-1.86-1.862-3.359-3.825-4.22-5.527
				c-0.347-0.689-0.508-1.179-0.581-1.5C267.411,357.207,270.132,358.73,273.111,361.707z"/>
			<path d="M284.068,369.799c0.511-0.783,0.811-1.717,0.811-2.721c0-2.764-2.238-5.003-5-5.003c-2.765,0-5,2.239-5,5.003
				c0,1.004,0.3,1.938,0.811,2.721H284.068z"/>
		</g>
	</g>
</g>
<g>
	<path d="M416.15,57.085l-15.163-9.855l-5.229,0.007l0.003,0.003c0,4.003-3.242,7.245-7.258,7.25c-3.998,0-7.244-3.25-7.244-7.25
		l0,0l-5.22-0.003l-15.164,9.846l9.856,9.853l3.223-3.224l-3.226,25.552h35.563l-3.219-25.548l3.223,3.222L416.15,57.085z"/>
	<path d="M399.602,53.38h-21.566v-5.263l10.438-0.818l11.129,0.816V53.38z M379.036,52.38h19.566v-3.337l-10.127-0.748l-9.439,0.746
		V52.38z"/>
	<path d="M389.013,47.797h-1v-1.884c-1.224-0.234-2.15-1.313-2.15-2.604c0-1.462,1.188-2.65,2.65-2.65c1.462,0,2.65,1.189,2.65,2.65
		h-1c0-0.91-0.74-1.65-1.65-1.65c-0.91,0-1.65,0.74-1.65,1.65c0,0.91,0.74,1.651,1.65,1.651h0.5V47.797z"/>
</g>
<g>
	<g>
		<path d="M411.224,154.83h-43.116c-2.376,0.004-4.311,1.94-4.314,4.317v2.694l51.747-0.003v-2.691
			C415.54,156.767,413.603,154.83,411.224,154.83z"/>
		<rect x="372.607" y="178.408" width="3.293" height="1.26"/>
		<path d="M363.793,184.014c-0.001,1.153,0.446,2.237,1.261,3.052c0.814,0.815,1.897,1.264,3.05,1.264h0.006h43.12
			c2.375,0,4.308-1.935,4.311-4.314v-16.913h-51.747V184.014z M390.301,171.208h18.524c0.553,0,1,0.448,1,1c0,0.552-0.447,1-1,1
			h-18.524c-0.553,0-1-0.448-1-1C389.301,171.655,389.748,171.208,390.301,171.208z M390.301,175.438h7.408c0.553,0,1,0.448,1,1
			s-0.447,1-1,1h-7.408c-0.553,0-1-0.448-1-1S389.748,175.438,390.301,175.438z M390.301,179.668h18.524c0.553,0,1,0.448,1,1
			c0,0.552-0.447,1-1,1h-18.524c-0.553,0-1-0.448-1-1C389.301,180.116,389.748,179.668,390.301,179.668z M370.607,177.408v-4.564
			v-3.262c0-0.552,0.447-1,1-1h5.293c0.553,0,1,0.448,1,1v2.262h1.991c0.553,0,1,0.448,1,1v4.564c0,0.552-0.447,1-1,1H377.9v2.26
			c0,0.552-0.447,1-1,1h-5.293c-0.553,0-1-0.448-1-1V177.408z"/>
		<polygon points="378.892,173.844 376.9,173.844 372.607,173.844 372.607,176.408 376.9,176.408 378.892,176.408 		"/>
		<rect x="372.607" y="170.582" width="3.293" height="1.262"/>
	</g>
	<rect x="363.793" y="160.399" width="1.309" height="6.703"/>
	<rect x="414.23" y="160.399" width="1.31" height="6.703"/>
</g>
<g>
	<g>
		<g>
			<path d="M140.633,227.273v85.74h70.936v-70.194h29.48v70.194h70.937v-85.74H140.633z M203.396,291.541h-55.512v-48.723h55.512
				V291.541z M304.734,291.541h-55.512v-48.723h55.512V291.541z"/>
		</g>
		<g>
			<g>
				<path style="fill:#FFFFFF;" d="M127.741,227.591c0,6.02,4.883,10.904,10.904,10.904c6.023,0,10.906-4.884,10.906-10.904H127.741
					z"/>
				<path d="M138.645,239.495c-6.564,0-11.904-5.34-11.904-11.904c0-0.553,0.448-1,1-1h21.811c0.552,0,1,0.447,1,1
					C150.552,234.155,145.21,239.495,138.645,239.495z M128.792,228.591c0.502,4.993,4.73,8.904,9.854,8.904
					c5.125,0,9.354-3.911,9.856-8.904H128.792z"/>
			</g>
			<g>
				<path style="fill:#FFFFFF;" d="M149.552,227.591c0,6.02,4.881,10.904,10.904,10.904c6.023,0,10.903-4.884,10.903-10.904H149.552
					z"/>
				<path d="M160.456,239.495c-6.564,0-11.904-5.34-11.904-11.904c0-0.553,0.448-1,1-1h21.808c0.552,0,1,0.447,1,1
					C172.359,234.155,167.02,239.495,160.456,239.495z M150.602,228.591c0.502,4.993,4.73,8.904,9.854,8.904
					c5.123,0,9.35-3.911,9.853-8.904H150.602z"/>
			</g>
			<g>
				<path style="fill:#FFFFFF;" d="M193.169,227.591c0,6.02,4.881,10.904,10.902,10.904c6.023,0,10.907-4.884,10.907-10.904H193.169
					z"/>
				<path d="M204.071,239.495c-6.563,0-11.902-5.34-11.902-11.904c0-0.553,0.448-1,1-1h21.81c0.552,0,1,0.447,1,1
					C215.979,234.155,210.637,239.495,204.071,239.495z M194.219,228.591c0.503,4.993,4.729,8.904,9.852,8.904
					c5.126,0,9.355-3.911,9.857-8.904H194.219z"/>
			</g>
			<g>
				<path style="fill:#FFFFFF;" d="M214.979,227.591c0,6.02,4.879,10.904,10.901,10.904c6.022,0,10.906-4.884,10.906-10.904H214.979
					z"/>
				<path d="M225.88,239.495c-6.563,0-11.901-5.34-11.901-11.904c0-0.553,0.448-1,1-1h21.808c0.553,0,1,0.447,1,1
					C237.786,234.155,232.445,239.495,225.88,239.495z M216.029,228.591c0.503,4.993,4.729,8.904,9.851,8.904
					c5.125,0,9.354-3.911,9.856-8.904H216.029z"/>
			</g>
			<g>
				<path style="fill:#FFFFFF;" d="M171.359,227.591c0,6.02,4.882,10.904,10.905,10.904c6.022,0,10.904-4.884,10.904-10.904H171.359
					z"/>
				<path d="M182.265,239.495c-6.564,0-11.905-5.34-11.905-11.904c0-0.553,0.448-1,1-1h21.81c0.552,0,1,0.447,1,1
					C194.169,234.155,188.829,239.495,182.265,239.495z M172.41,228.591c0.502,4.993,4.73,8.904,9.855,8.904
					c5.124,0,9.352-3.911,9.854-8.904H172.41z"/>
			</g>
			<g>
				<g>
					<polygon style="fill:#FFFFFF;" points="176.518,180.52 171.359,227.591 149.552,227.591 159.075,180.52 					"/>
					<path d="M171.359,228.591h-21.808c-0.3,0-0.584-0.135-0.774-0.367c-0.19-0.231-0.266-0.537-0.206-0.831l9.523-47.07
						c0.094-0.466,0.504-0.802,0.98-0.802h17.442c0.284,0,0.555,0.121,0.745,0.333c0.189,0.212,0.28,0.494,0.249,0.776
						l-5.158,47.071C172.298,228.207,171.87,228.591,171.359,228.591z M150.774,226.591h19.688l4.939-45.07h-15.509L150.774,226.591
						z"/>
				</g>
			</g>
			<g>
				<g>
					<path d="M214.979,228.591h-21.81c-0.267,0-0.523-0.107-0.711-0.297c-0.188-0.19-0.292-0.448-0.289-0.715l2.572-47.071
						c0.007-0.547,0.453-0.988,1-0.988h20.785c0.274,0,0.537,0.113,0.726,0.313c0.189,0.199,0.287,0.467,0.272,0.742l-1.548,47.07
						C215.948,228.176,215.51,228.591,214.979,228.591z M194.181,226.591h19.85l1.439-45.07h-18.742L194.181,226.591z"/>
				</g>
			</g>
			<g>
				<g>
					<path d="M193.169,228.591h-21.81c-0.284,0-0.555-0.121-0.745-0.332c-0.189-0.212-0.28-0.494-0.25-0.777l5.158-47.07
						c0.056-0.507,0.484-0.891,0.994-0.891h18.936c0.273,0,0.535,0.112,0.724,0.31c0.188,0.198,0.288,0.465,0.275,0.738
						l-2.284,47.071C194.142,228.172,193.702,228.591,193.169,228.591z M172.475,226.591h19.741l2.187-45.07h-16.989
						L172.475,226.591z"/>
				</g>
			</g>
			<g>
				<g>
					<path d="M149.552,228.591h-22.104c-0.314,0-0.609-0.147-0.798-0.397c-0.189-0.251-0.249-0.575-0.163-0.877l13.438-47.07
						c0.123-0.43,0.515-0.726,0.961-0.726h18.188c0.3,0,0.584,0.135,0.774,0.367c0.19,0.232,0.266,0.538,0.206,0.832l-9.523,47.07
						C150.438,228.256,150.028,228.591,149.552,228.591z M128.774,226.591h19.96l9.119-45.07h-16.211L128.774,226.591z"/>
				</g>
			</g>
			<g>
				<path style="fill:#FFFFFF;" d="M324.507,227.591c0,6.02-4.88,10.904-10.905,10.904c-6.023,0-10.903-4.884-10.903-10.904H324.507
					z"/>
				<path d="M313.602,239.495c-6.564,0-11.903-5.34-11.903-11.904c0-0.553,0.447-1,1-1h21.809c0.553,0,1,0.447,1,1
					C325.507,234.155,320.166,239.495,313.602,239.495z M303.748,228.591c0.503,4.993,4.73,8.904,9.854,8.904
					c5.124,0,9.353-3.911,9.855-8.904H303.748z"/>
			</g>
			<g>
				<path style="fill:#FFFFFF;" d="M302.698,227.591c0,6.02-4.883,10.904-10.905,10.904c-6.023,0-10.902-4.884-10.902-10.904
					H302.698z"/>
				<path d="M291.793,239.495c-6.563,0-11.902-5.34-11.902-11.904c0-0.553,0.447-1,1-1h21.808c0.553,0,1,0.447,1,1
					C303.698,234.155,298.357,239.495,291.793,239.495z M281.94,228.591c0.503,4.993,4.729,8.904,9.853,8.904
					c5.124,0,9.352-3.911,9.855-8.904H281.94z"/>
			</g>
			<g>
				<path style="fill:#FFFFFF;" d="M259.082,227.591c0,6.02-4.884,10.904-10.906,10.904c-6.023,0-10.903-4.884-10.903-10.904
					H259.082z"/>
				<path d="M248.176,239.495c-6.564,0-11.903-5.34-11.903-11.904c0-0.553,0.447-1,1-1h21.81c0.553,0,1,0.447,1,1
					C260.082,234.155,254.741,239.495,248.176,239.495z M238.322,228.591c0.503,4.993,4.73,8.904,9.854,8.904
					c5.125,0,9.354-3.911,9.856-8.904H238.322z"/>
			</g>
			<g>
				<path style="fill:#FFFFFF;" d="M280.891,227.591c0,6.02-4.884,10.904-10.907,10.904c-6.022,0-10.901-4.884-10.901-10.904
					H280.891z"/>
				<path d="M269.983,239.495c-6.563,0-11.901-5.34-11.901-11.904c0-0.553,0.447-1,1-1h21.809c0.553,0,1,0.447,1,1
					C281.891,234.155,276.549,239.495,269.983,239.495z M260.132,228.591c0.503,4.993,4.729,8.904,9.852,8.904
					c5.125,0,9.354-3.911,9.857-8.904H260.132z"/>
			</g>
			<g>
				<g>
					<polygon style="fill:#FFFFFF;" points="275.729,180.52 280.891,227.591 302.698,227.591 293.176,180.52 					"/>
					<path d="M302.698,228.591h-21.808c-0.51,0-0.939-0.384-0.994-0.891l-5.161-47.071c-0.031-0.282,0.06-0.565,0.249-0.776
						c0.19-0.211,0.461-0.333,0.745-0.333h17.446c0.476,0,0.886,0.336,0.98,0.802l9.522,47.07c0.06,0.294-0.017,0.6-0.206,0.831
						C303.282,228.456,302.998,228.591,302.698,228.591z M281.787,226.591h19.689l-9.118-45.07h-15.513L281.787,226.591z"/>
				</g>
			</g>
			<g>
				<g>
					<path d="M259.082,228.591h-21.81c-0.531,0-0.97-0.415-0.999-0.946l-1.548-47.07c-0.015-0.274,0.084-0.543,0.273-0.742
						c0.189-0.2,0.451-0.313,0.726-0.313h20.786c0.548,0,0.993,0.44,1,0.988l2.571,47.071c0.003,0.267-0.101,0.524-0.289,0.715
						C259.605,228.483,259.35,228.591,259.082,228.591z M238.22,226.591h19.85l-2.547-45.07H236.78L238.22,226.591z"/>
				</g>
			</g>
			<g>
				<g>
					<path d="M280.891,228.591h-21.809c-0.533,0-0.973-0.419-0.999-0.951l-2.284-47.071c-0.013-0.273,0.086-0.54,0.275-0.738
						c0.189-0.198,0.45-0.31,0.724-0.31h18.932c0.51,0,0.939,0.384,0.994,0.891l5.161,47.07c0.031,0.283-0.06,0.566-0.249,0.776
						C281.445,228.47,281.175,228.591,280.891,228.591z M260.035,226.591h19.74l-4.942-45.07h-16.985L260.035,226.591z"/>
				</g>
			</g>
			<g>
				<g>
					<path d="M324.802,228.591h-22.104c-0.475,0-0.886-0.335-0.98-0.802l-9.523-47.07c-0.06-0.294,0.017-0.599,0.206-0.832
						c0.19-0.232,0.475-0.367,0.774-0.367h18.187c0.446,0,0.839,0.296,0.962,0.726l13.44,47.07c0.086,0.302,0.025,0.626-0.164,0.877
						C325.411,228.443,325.115,228.591,324.802,228.591z M303.517,226.591h19.96l-12.869-45.07h-16.209L303.517,226.591z"/>
				</g>
			</g>
			<g>
				<polygon style="fill:#FFFFFF;" points="216.331,180.52 235.43,180.52 236.786,227.591 214.979,227.591 				"/>
				<path d="M236.806,228.591c-0.006-0.001-0.014-0.001-0.02,0h-21.808c-0.27,0-0.529-0.109-0.717-0.303
					c-0.188-0.194-0.29-0.456-0.282-0.726l1.352-47.071c0.016-0.541,0.458-0.971,1-0.971h19.099c0.541,0,0.984,0.43,1,0.971
					l1.351,46.871c0.017,0.073,0.025,0.15,0.025,0.229C237.806,228.144,237.358,228.591,236.806,228.591z M216.008,226.591h19.749
					l-1.299-45.07h-17.155L216.008,226.591z"/>
			</g>
		</g>
		<rect x="182.406" y="169.978" width="2" height="10.398"/>
		<rect x="261.056" y="169.978" width="2" height="10.398"/>
	</g>
	<path d="M318.758,323.382H133.492c-0.552,0-1-0.447-1-1v-9.369c0-0.553,0.448-1,1-1h185.266c0.553,0,1,0.447,1,1v9.369
		C319.758,322.935,319.31,323.382,318.758,323.382z M134.492,321.382h183.266v-7.369H134.492V321.382z"/>
	<path d="M234.725,280.669c-1.646,0-2.986-1.339-2.986-2.985c0-1.646,1.34-2.985,2.986-2.985c1.645,0,2.984,1.339,2.984,2.985
		C237.709,279.33,236.37,280.669,234.725,280.669z M234.725,276.698c-0.544,0-0.986,0.442-0.986,0.985s0.442,0.985,0.986,0.985
		c0.543,0,0.984-0.442,0.984-0.985S235.268,276.698,234.725,276.698z"/>
	<g>
		<path d="M191.01,283.388h-31.61c-0.559,0-1.013-0.454-1.013-1.013v-12.098c0-0.559,0.454-1.013,1.013-1.013h31.61
			c0.558,0,1.013,0.454,1.013,1.013v12.098C192.022,282.934,191.568,283.388,191.01,283.388z M159.631,282.143h31.146v-11.634
			h-31.146V282.143z"/>
		<path d="M179.32,270.319c-0.229,0-0.448-0.12-0.557-0.33l-3.559-6.842l-3.559,6.842c-0.154,0.294-0.527,0.415-0.835,0.268
			c-0.308-0.147-0.432-0.507-0.278-0.803l4.115-7.911c0.211-0.405,0.902-0.405,1.113,0l4.115,7.911
			c0.154,0.296,0.029,0.655-0.278,0.803C179.509,270.3,179.414,270.319,179.32,270.319z"/>
		<path d="M177.262,261.834c0,1.137-0.92,2.058-2.057,2.058c-1.137,0-2.058-0.921-2.058-2.058c0-1.137,0.921-2.059,2.058-2.059
			C176.341,259.775,177.262,260.697,177.262,261.834z"/>
	</g>
	<g>
		<g>
			<g>
				<path d="M277.761,277.669c-6.341,0-11.5-5.159-11.5-11.5c0-6.341,5.159-11.499,11.5-11.499c6.342,0,11.501,5.158,11.501,11.499
					C289.262,272.51,284.102,277.669,277.761,277.669z M277.761,256.17c-5.514,0-10,4.485-10,9.999c0,5.514,4.486,10,10,10
					c5.515,0,10.001-4.486,10.001-10C287.762,260.655,283.275,256.17,277.761,256.17z"/>
			</g>
			<g>
				<path d="M277.762,254.42c-6.369,0-11.531,4.882-11.531,10.902c0,0.037,0.006,0.071,0.006,0.107
					c1.68,0.826,3.584,1.303,5.608,1.303c4.565,0,8.537-2.385,10.615-5.906c1.579,3.39,3.992,5.643,6.729,5.882
					c0.06-0.456,0.103-0.916,0.103-1.386C289.292,259.302,284.129,254.42,277.762,254.42z"/>
			</g>
			<g>
				<g>
					<path d="M274.882,267.686c0,1.112-0.535,2.01-1.195,2.01c-0.661,0-1.196-0.897-1.196-2.01c0-1.109,0.535-2.01,1.196-2.01
						C274.347,265.677,274.882,266.577,274.882,267.686z"/>
				</g>
				<g>
					<path d="M283.031,267.686c0,1.112-0.535,2.01-1.195,2.01c-0.66,0-1.195-0.897-1.195-2.01c0-1.109,0.535-2.01,1.195-2.01
						C282.496,265.677,283.031,266.577,283.031,267.686z"/>
				</g>
			</g>
		</g>
		<g>
			<path d="M283.031,252.154c0,1.994-2.359,3.61-5.271,3.61c-2.911,0-5.27-1.616-5.27-3.61c0-1.994,2.359-3.61,5.27-3.61
				C280.672,248.544,283.031,250.16,283.031,252.154z"/>
		</g>
		<g>
			<path d="M281.836,271.03c-1.844,0-3.344-1.5-3.344-3.344c0-0.276,0.224-0.5,0.5-0.5h5.686c0.276,0,0.5,0.224,0.5,0.5
				C285.179,269.53,283.679,271.03,281.836,271.03z M279.546,268.186c0.229,1.053,1.169,1.844,2.29,1.844
				c1.12,0,2.06-0.791,2.289-1.844H279.546z"/>
		</g>
		<g>
			<path d="M273.686,271.03c-1.845,0-3.345-1.5-3.345-3.344c0-0.276,0.224-0.5,0.5-0.5h5.688c0.276,0,0.5,0.224,0.5,0.5
				C277.029,269.53,275.529,271.03,273.686,271.03z M271.396,268.186c0.229,1.053,1.17,1.844,2.291,1.844
				c1.12,0,2.06-0.791,2.289-1.844H271.396z"/>
		</g>
		<g>
			<path d="M277.761,274.603c-1.664,0-3.343-0.441-3.343-1.427c0-0.276,0.224-0.5,0.5-0.5c0.256,0,0.467,0.191,0.496,0.439
				c0.164,0.176,0.993,0.487,2.347,0.487c1.405,0,2.245-0.335,2.363-0.507c0-0.275,0.214-0.46,0.49-0.46
				c0.276,0,0.49,0.264,0.49,0.54C281.104,274.162,279.425,274.603,277.761,274.603z"/>
		</g>
		<g>
			<path d="M278.992,268.98h-2.463c-0.276,0-0.5-0.224-0.5-0.5c0-0.276,0.224-0.5,0.5-0.5h2.463c0.276,0,0.5,0.224,0.5,0.5
				C279.492,268.757,279.269,268.98,278.992,268.98z"/>
		</g>
		<g>
			<path d="M277.761,277.919c-8.588,0-15.55,11.445-15.55,14.462h31.101C293.311,289.364,286.35,277.919,277.761,277.919z
				 M286.422,285.73h-5.781v-2.557h5.781V285.73z"/>
		</g>
	</g>
</g>
<g>
	<g>
		<g>
			<g>
				<path d="M374.571,271.378c0.343,0,1.636-0.184,1.808-0.507l7.354-15.561c0.25-0.468,0.073-1.049-0.393-1.3
					c-0.47-0.25-1.051-0.073-1.3,0.396l-8.315,15.56c-0.249,0.468-0.073,1.05,0.397,1.3
					C374.264,271.343,374.419,271.378,374.571,271.378z"/>
			</g>
			<g>
				<path d="M399.526,271.378c0.152,0,0.308-0.035,0.452-0.112c0.467-0.25,0.644-0.832,0.395-1.3l-8.314-15.56
					c-0.249-0.469-0.831-0.646-1.3-0.396c-0.467,0.251-0.646,0.832-0.394,1.3l7.354,15.561
					C397.891,271.194,399.184,271.378,399.526,271.378z"/>
			</g>
		</g>
	</g>
	<path d="M413.226,269.457h-3.33h-45.693h-3.328c-0.531,0-0.961,0.763-0.961,1.704c0,0.942,0.43,1.704,0.961,1.704h1.489
		l6.703,27.64c0.067,1.109,0.994,1.992,2.121,1.992h31.727c1.127,0,2.052-0.883,2.119-1.992l6.705-27.64h1.487
		c0.531,0,0.961-0.762,0.961-1.704C414.186,270.22,413.757,269.457,413.226,269.457z M369.422,273.404h2.968l1.098,11.367h-2.744
		L369.422,273.404z M372.181,297.153l-1.09-9.383h2.7l0.904,9.383H372.181z M377.49,273.404h2.982l0.492,11.367h-2.759
		L377.49,273.404z M378.988,297.153l-0.592-9.383h2.698l0.407,9.383H378.988z M388.308,297.153h-2.513l-0.092-9.383h2.696
		L388.308,297.153z M388.43,284.772h-2.757l-0.111-11.367h2.979L388.43,284.772z M395.114,297.153h-2.514l0.406-9.383h2.699
		L395.114,297.153z M395.895,284.772h-2.757l0.491-11.367h2.982L395.895,284.772z M401.92,297.153h-2.513l0.905-9.383h2.697
		L401.92,297.153z M403.358,284.772h-2.757l1.098-11.367h2.979L403.358,284.772z"/>
</g>
<g>
	<path d="M301.23,46.729l-40.142,1.904c-2.68,0-4.908-0.053-5.525,2.435c0.617,2.487,2.846,2.434,5.525,2.434h40.142
		C303.911,53.502,303.911,46.729,301.23,46.729z"/>
	<path d="M305.186,61.056c0-3.123-2.51-5.652-5.62-5.703l-0.093-0.094h-40.142c-2.679,0-4.909-1.851-5.526-4.338
		c-0.111,0.441-0.186,0.897-0.186,1.373v5.549h1.504v0.952h-1.504v2.26v21.857c0,3.154,2.557,5.712,5.712,5.712h40.142
		c3.156,0,5.713-2.558,5.713-5.712v-2.41h-1.527c-0.053,0.458-0.135,0.911-0.286,1.345l-0.9-0.314
		c0.117-0.334,0.188-0.681,0.234-1.031h-4.184c-4.62,0-8.38-3.76-8.38-8.381c0-4.622,3.76-8.381,8.38-8.381h6.663V61.056z
		 M301.631,83.063l0.743,0.593c-0.434,0.545-0.95,1.01-1.535,1.381l-0.51-0.803C300.825,83.919,301.263,83.526,301.631,83.063z
		 M296.919,85.045h0.609c0.402,0,0.802-0.046,1.188-0.136l0.217,0.928c-0.457,0.106-0.93,0.16-1.404,0.16h-0.609V85.045z
		 M293.087,85.045h1.914v0.952h-1.914V85.045z M256.663,85.997h-1.916v-0.952h1.916V85.997z M257.04,57.843h1.916v0.952h-1.916
		V57.843z M260.497,85.997h-1.916v-0.952h1.916V85.997z M260.874,57.843h1.916v0.952h-1.916V57.843z M264.331,85.997h-1.916v-0.952
		h1.916V85.997z M264.708,57.843h1.916v0.952h-1.916V57.843z M268.166,85.997h-1.917v-0.952h1.917V85.997z M268.542,57.843h1.916
		v0.952h-1.916V57.843z M271.998,85.997h-1.917v-0.952h1.917V85.997z M272.376,57.843h1.918v0.952h-1.918V57.843z M275.833,85.997
		h-1.918v-0.952h1.918V85.997z M276.21,57.843h1.918v0.952h-1.918V57.843z M279.667,85.997h-1.918v-0.952h1.918V85.997z
		 M280.044,57.843h1.916v0.952h-1.916V57.843z M283.501,85.997h-1.918v-0.952h1.918V85.997z M283.876,57.843h1.918v0.952h-1.918
		V57.843z M287.335,85.997h-1.916v-0.952h1.916V85.997z M287.711,57.843h1.917v0.952h-1.917V57.843z M291.169,85.045v0.952h-1.916
		v-0.952H291.169z M293.462,58.795h-1.917v-0.952h1.917V58.795z M297.296,58.795h-1.916v-0.952h1.916V58.795z M300.613,59.801
		c-0.476-0.348-1.002-0.611-1.563-0.782l0.275-0.911c0.665,0.202,1.287,0.512,1.85,0.924L300.613,59.801z M302.577,62.635
		c-0.154-0.564-0.404-1.095-0.74-1.582l0.781-0.543c0.398,0.576,0.695,1.206,0.878,1.873L302.577,62.635z"/>
	<path d="M291.964,72.121c0,3.069,2.462,6.56,6.56,6.56h6.663v-13.12h-6.663C294.324,65.561,291.964,69.052,291.964,72.121z
		 M296.696,68.019l0.397,0.865c-0.506,0.232-0.961,0.588-1.313,1.028l-0.743-0.595C295.481,68.762,296.055,68.313,296.696,68.019z
		 M294.227,73.349c-0.113-0.399-0.171-0.813-0.171-1.228c0-0.296,0.028-0.591,0.085-0.877l0.934,0.184
		c-0.044,0.224-0.066,0.456-0.066,0.693c0,0.327,0.045,0.654,0.135,0.969L294.227,73.349z M297.032,76.36
		c-0.666-0.241-1.273-0.643-1.76-1.162l0.695-0.651c0.385,0.411,0.863,0.728,1.388,0.918L297.032,76.36z M300.471,76.63h-1.905
		v-0.952h1.905V76.63z M302.579,67.612h1.904v0.952h-1.904V67.612z M302.388,75.678h1.903v0.952h-1.903V75.678z M298.269,74.568
		c-1.352,0-2.447-1.096-2.447-2.447c0-1.352,1.096-2.447,2.447-2.447c1.352,0,2.447,1.095,2.447,2.447
		C300.716,73.473,299.62,74.568,298.269,74.568z M298.759,67.612h1.905v0.952h-1.905V67.612z"/>
</g>
<g>
	<g>
		<g>
			<g>
				<path d="M186.242,395.799c-3.397,0-6.16,2.763-6.16,6.159c0,3.395,2.763,6.158,6.16,6.158c3.395,0,6.157-2.763,6.157-6.158
					C192.398,398.561,189.637,395.799,186.242,395.799z M186.241,403.443c-0.82,0-1.486-0.665-1.486-1.485
					c0-0.821,0.665-1.486,1.486-1.486c0.82,0,1.484,0.665,1.484,1.486C187.725,402.778,187.061,403.443,186.241,403.443z"/>
			</g>
		</g>
	</g>
	<g>
		<g>
			<g>
				<path d="M162.813,395.799c-3.398,0-6.161,2.763-6.161,6.159c0,3.395,2.763,6.158,6.161,6.158c3.395,0,6.157-2.763,6.157-6.158
					C168.97,398.561,166.208,395.799,162.813,395.799z M162.811,403.443c-0.82,0-1.484-0.665-1.484-1.485
					c0-0.821,0.664-1.486,1.484-1.486c0.821,0,1.485,0.665,1.485,1.486C164.296,402.778,163.632,403.443,162.811,403.443z"/>
			</g>
		</g>
	</g>
	<g>
		<path d="M196.036,395.277h-42.878c-0.552,0-1-0.447-1-1v-28.605h-4.725c-0.552,0-1-0.447-1-1c0-0.553,0.448-1,1-1h5.725
			c0.552,0,1,0.447,1,1v28.605h41.878c0.552,0,1,0.447,1,1C197.036,394.83,196.588,395.277,196.036,395.277z"/>
	</g>
	<g>
		<path d="M155.754,361.084v31.017h38.516v-31.017H155.754z M167.425,377.155l1.682,3.306l-0.85,0.007l0.039,7.697l-1.623,0.01
			l-0.045-7.699l-0.848,0.006L167.425,377.155z M162.469,377.203l1.681,3.308l-0.85,0.008l0.042,7.693l-1.625,0.006l-0.043-7.69
			l-0.851,0.003L162.469,377.203z M159.81,389.747l-0.006-0.811l10.415-0.06l0.004,0.813L159.81,389.747z M189.58,370.338
			c-0.966,0.019-1.83,0.35-2.426,0.872c-0.815-0.681-2.183-1.114-3.74-1.172l0.158,8.856c0.008,0.648,0.548,1.161,1.197,1.152
			c0.646-0.009,1.161-0.546,1.147-1.192l-0.004-0.25l0.729-0.016l0.01,0.25c0.012,1.052-0.824,1.917-1.871,1.941
			c-1.053,0.016-1.918-0.827-1.94-1.87l-0.155-8.877c-1.647,0.075-3.087,0.579-3.915,1.326c-0.618-0.499-1.494-0.804-2.46-0.787
			c-0.583,0.01-1.133,0.14-1.606,0.355c0.283-4.25,3.785-7.641,8.113-7.723c4.332-0.074,7.945,3.194,8.38,7.428
			C190.718,370.435,190.167,370.328,189.58,370.338z"/>
	</g>
</g>
<g>
	<g>
		<path d="M182.434,50.115c-0.389,0-0.705,0.316-0.705,0.706c0,0.389,0.316,0.706,0.705,0.706c0.39,0,0.706-0.317,0.706-0.706
			C183.14,50.432,182.823,50.115,182.434,50.115z"/>
		<path d="M158.857,50.821c0-0.389-0.317-0.706-0.707-0.706c-0.39,0-0.706,0.316-0.706,0.706c0,0.389,0.316,0.706,0.706,0.706
			C158.54,51.527,158.857,51.21,158.857,50.821z"/>
		<path d="M157.444,50.821c0-0.389,0.316-0.706,0.706-0.706c0.39,0,0.707,0.316,0.707,0.706c0,0.389-0.317,0.706-0.707,0.706
			C157.761,51.527,157.444,51.21,157.444,50.821z"/>
		<path d="M182.434,51.527c-0.389,0-0.705-0.317-0.705-0.706c0-0.389,0.316-0.706,0.705-0.706c0.39,0,0.706,0.316,0.706,0.706
			C183.14,51.21,182.823,51.527,182.434,51.527z"/>
	</g>
	<path d="M193.651,44.017c-0.038-0.523-0.474-0.927-0.997-0.927H147.93c-0.523,0-0.959,0.405-0.997,0.927L143.5,91.192
		c-0.02,0.277,0.076,0.55,0.266,0.754c0.189,0.203,0.454,0.319,0.732,0.319h51.59c0.278,0,0.543-0.116,0.732-0.319
		c0.189-0.204,0.285-0.477,0.266-0.754L193.651,44.017z M147.42,89.124h-1v-1h1V89.124z M149.427,89.124h-1v-1h1V89.124z
		 M151.434,89.124h-1v-1h1V89.124z M153.441,89.124h-1v-1h1V89.124z M155.447,89.124h-1v-1h1V89.124z M157.454,89.124h-1v-1h1
		V89.124z M159.461,89.124h-1v-1h1V89.124z M161.468,89.124h-1v-1h1V89.124z M163.475,89.124h-1v-1h1V89.124z M165.481,89.124h-1v-1
		h1V89.124z M167.488,89.124h-1v-1h1V89.124z M169.495,89.124h-1v-1h1V89.124z M171.501,89.124h-1v-1h1V89.124z M173.508,89.124h-1
		v-1h1V89.124z M175.515,89.124h-1v-1h1V89.124z M177.522,89.124h-1v-1h1V89.124z M179.528,89.124h-1v-1h1V89.124z M181.535,89.124
		h-1v-1h1V89.124z M183.542,89.124h-1v-1h1V89.124z M183.435,53.33v7.803c-0.042,8.365-5.938,15.166-13.142,15.166
		c-7.2,0-13.095-6.801-13.141-15.16v-7.808c-0.998-0.399-1.708-1.371-1.708-2.51c0-1.492,1.214-2.706,2.706-2.706
		c1.492,0,2.707,1.214,2.707,2.706c0,1.138-0.708,2.109-1.705,2.509v7.803c0.04,7.257,5.037,13.166,11.141,13.166
		c6.107,0,11.105-5.908,11.142-13.17v-7.797c-0.998-0.399-1.706-1.371-1.706-2.51c0-1.492,1.213-2.706,2.705-2.706
		s2.706,1.214,2.706,2.706C185.14,51.959,184.432,52.931,183.435,53.33z M185.549,89.124h-1v-1h1V89.124z M187.556,89.124h-1v-1h1
		V89.124z M189.563,89.124h-1v-1h1V89.124z M191.569,89.124h-1v-1h1V89.124z M193.576,89.124h-1v-1h1V89.124z"/>
</g>
<g>
	<g>
		<g>
			<g>
				<g>
					<g>
						<g>
							<g>
								<g>
									<path d="M371.646,403.161h0.961v-3.324l0.068-0.405l-0.274,0.322l-0.755,0.543l-0.262-0.351l1.511-1.167h0.248v4.382h0.94
										v0.508h-2.438V403.161z"/>
								</g>
							</g>
						</g>
					</g>
				</g>
			</g>
		</g>
		<g>
			<g>
				<g>
					<g>
						<g>
							<g>
								<g>
									<path d="M382.165,399.952c0,0.243-0.045,0.491-0.135,0.745c-0.089,0.255-0.206,0.51-0.351,0.767
										c-0.144,0.257-0.306,0.508-0.484,0.753c-0.179,0.245-0.357,0.478-0.536,0.697l-0.336,0.296v0.027l0.44-0.076h1.498v0.509
										h-2.735v-0.199c0.101-0.105,0.223-0.236,0.364-0.392c0.143-0.156,0.29-0.329,0.443-0.52
										c0.153-0.19,0.305-0.392,0.454-0.604c0.148-0.213,0.283-0.43,0.405-0.649c0.121-0.22,0.219-0.438,0.292-0.652
										c0.073-0.216,0.11-0.42,0.11-0.612c0-0.224-0.064-0.411-0.193-0.56c-0.128-0.149-0.322-0.224-0.584-0.224
										c-0.174,0-0.344,0.036-0.508,0.106c-0.165,0.071-0.308,0.152-0.427,0.244l-0.227-0.392c0.16-0.138,0.351-0.245,0.57-0.323
										c0.22-0.078,0.456-0.116,0.708-0.116c0.197,0,0.371,0.028,0.522,0.085c0.151,0.058,0.279,0.139,0.385,0.244
										c0.105,0.105,0.185,0.23,0.24,0.375C382.137,399.626,382.165,399.782,382.165,399.952z"/>
								</g>
							</g>
						</g>
					</g>
				</g>
			</g>
		</g>
		<g>
			<g>
				<g>
					<g>
						<g>
							<g>
								<g>
									<path d="M388.524,403.272c0.155,0,0.3-0.024,0.433-0.069c0.133-0.045,0.247-0.113,0.344-0.202
										c0.096-0.09,0.172-0.196,0.227-0.319c0.055-0.124,0.083-0.259,0.083-0.406c0-0.32-0.096-0.559-0.285-0.714
										c-0.19-0.156-0.453-0.234-0.787-0.234h-0.509v-0.199l0.989-1.525l0.316-0.303l-0.446,0.069h-1.361v-0.509h2.454v0.199
										l-1.093,1.643l-0.241,0.199v0.014l0.234-0.048c0.183,0.005,0.353,0.038,0.508,0.1c0.156,0.062,0.291,0.151,0.406,0.268
										c0.114,0.117,0.203,0.257,0.268,0.42c0.064,0.162,0.097,0.347,0.097,0.553c0,0.247-0.044,0.468-0.131,0.66
										c-0.087,0.192-0.205,0.353-0.354,0.484c-0.148,0.13-0.324,0.23-0.525,0.299c-0.201,0.068-0.415,0.103-0.639,0.103
										c-0.206,0-0.392-0.016-0.557-0.048c-0.165-0.032-0.31-0.073-0.434-0.123l0.145-0.488c0.105,0.051,0.23,0.093,0.375,0.127
										C388.184,403.254,388.346,403.272,388.524,403.272z"/>
								</g>
							</g>
						</g>
					</g>
				</g>
			</g>
		</g>
		<g>
			<g>
				<g>
					<g>
						<g>
							<g>
								<g>
									<path d="M398.574,402.192h-0.811v1.477h-0.536v-1.477h-2.116v-0.227l2.281-3.182h0.371v2.927h0.811V402.192z
										 M397.227,400.213l0.069-0.563h-0.022l-0.24,0.468l-0.969,1.313l-0.33,0.337l0.481-0.056h1.01V400.213z"/>
								</g>
							</g>
						</g>
					</g>
				</g>
			</g>
		</g>
		<g>
			<g>
				<g>
					<g>
						<g>
							<g>
								<g>
									<path d="M403.849,403.272c0.316,0,0.577-0.092,0.783-0.275c0.206-0.183,0.31-0.448,0.31-0.797
										c0-0.334-0.102-0.584-0.306-0.749c-0.204-0.165-0.484-0.247-0.842-0.247l-0.577,0.034v-2.378h2.144v0.509h-1.629v1.367
										l0.296-0.014c0.453,0.005,0.811,0.131,1.072,0.378c0.261,0.247,0.392,0.602,0.392,1.065c0,0.257-0.044,0.484-0.131,0.684
										c-0.087,0.199-0.205,0.365-0.354,0.498c-0.149,0.133-0.324,0.234-0.526,0.303c-0.201,0.068-0.417,0.103-0.646,0.103
										c-0.206,0-0.381-0.011-0.522-0.034c-0.142-0.022-0.274-0.057-0.398-0.103l0.145-0.468c0.105,0.041,0.219,0.072,0.34,0.093
										C403.52,403.261,403.67,403.272,403.849,403.272z"/>
								</g>
							</g>
						</g>
					</g>
				</g>
			</g>
		</g>
	</g>
</g>
<g>
	<g>
		<g>
			<g>
				<g>
					<g>
						<g>
							<path d="M190.972,161.189c0-1.233-0.367-2.239-1.101-3.017c-0.734-0.777-1.651-1.468-2.752-2.07
								c-1.101-0.602-2.298-1.167-3.589-1.696c-1.292-0.528-2.488-1.167-3.589-1.916c-1.101-0.749-2.019-1.674-2.753-2.775
								c-0.734-1.101-1.101-2.502-1.101-4.206c0-2.407,0.837-4.316,2.511-5.726c1.673-1.409,4.052-2.114,7.135-2.114
								c1.791,0,3.42,0.132,4.889,0.396c1.468,0.264,2.613,0.602,3.435,1.013l-1.101,3.259c-0.676-0.333-1.667-0.651-2.973-0.954
								c-1.307-0.303-2.782-0.455-4.426-0.455c-1.938,0-3.391,0.434-4.36,1.299c-0.969,0.866-1.453,1.887-1.453,3.061
								c0,1.145,0.367,2.099,1.101,2.862c0.733,0.764,1.651,1.447,2.752,2.048c1.101,0.602,2.297,1.196,3.589,1.784
								c1.292,0.587,2.488,1.27,3.589,2.048c1.101,0.778,2.019,1.711,2.753,2.796c0.733,1.087,1.101,2.438,1.101,4.052
								c0,1.321-0.235,2.511-0.705,3.567c-0.47,1.057-1.16,1.968-2.07,2.731c-0.91,0.764-2.011,1.351-3.303,1.762
								c-1.292,0.411-2.76,0.616-4.404,0.616c-2.202,0-4.023-0.169-5.461-0.506c-1.439-0.337-2.554-0.711-3.347-1.123l1.233-3.259
								c0.675,0.372,1.673,0.736,2.995,1.094c1.321,0.358,2.804,0.536,4.448,0.536c0.969,0,1.878-0.095,2.73-0.287
								c0.852-0.19,1.585-0.499,2.202-0.925c0.617-0.425,1.108-0.961,1.476-1.607C190.789,162.833,190.972,162.07,190.972,161.189z"
								/>
							<path d="M184.146,170.557c-2.268,0-4.183-0.179-5.69-0.533c-1.532-0.359-2.703-0.754-3.58-1.209l-0.789-0.41l1.956-5.17
								l1.01,0.556c0.602,0.331,1.535,0.669,2.773,1.004c1.229,0.333,2.637,0.501,4.187,0.501c0.892,0,1.736-0.088,2.511-0.262
								c0.723-0.162,1.346-0.421,1.853-0.772c0.495-0.341,0.879-0.76,1.175-1.279c0.278-0.49,0.42-1.094,0.42-1.795
								c0-0.977-0.271-1.74-0.829-2.331c-0.66-0.698-1.503-1.331-2.505-1.878c-1.063-0.581-2.237-1.135-3.488-1.648
								c-1.348-0.551-2.618-1.229-3.772-2.014c-1.204-0.818-2.221-1.843-3.023-3.047c-0.842-1.263-1.269-2.864-1.269-4.76
								c0-2.706,0.964-4.889,2.867-6.491c1.851-1.559,4.468-2.349,7.779-2.349c1.84,0,3.544,0.139,5.066,0.412
								c1.576,0.284,2.788,0.645,3.705,1.103l0.779,0.39l-1.745,5.165l-1.024-0.504c-0.605-0.298-1.533-0.593-2.756-0.877
								c-1.23-0.285-2.643-0.429-4.201-0.429c-1.675,0-2.918,0.352-3.694,1.045c-0.753,0.673-1.119,1.431-1.119,2.315
								c0,0.885,0.269,1.594,0.822,2.169c0.659,0.687,1.504,1.314,2.511,1.864c1.074,0.587,2.26,1.176,3.523,1.751
								c1.343,0.61,2.605,1.331,3.753,2.141c1.194,0.845,2.205,1.872,3.004,3.053c0.845,1.252,1.273,2.803,1.273,4.612
								c0,1.456-0.266,2.792-0.792,3.974c-0.529,1.192-1.317,2.232-2.341,3.091c-1.005,0.844-2.231,1.5-3.643,1.949
								C187.468,170.333,185.885,170.557,184.146,170.557z M176.607,167.397c0.626,0.24,1.397,0.467,2.305,0.68
								c1.358,0.318,3.119,0.48,5.233,0.48c1.533,0,2.913-0.191,4.101-0.569c1.161-0.37,2.158-0.899,2.963-1.575
								c0.788-0.662,1.394-1.459,1.798-2.371c0.411-0.924,0.619-1.987,0.619-3.161c0-1.403-0.313-2.578-0.93-3.492
								c-0.663-0.98-1.504-1.835-2.501-2.54c-1.045-0.738-2.198-1.396-3.426-1.954c-1.308-0.594-2.538-1.206-3.655-1.816
								c-1.186-0.648-2.194-1.4-2.994-2.233c-0.915-0.951-1.379-2.147-1.379-3.555c0-1.466,0.601-2.746,1.787-3.807
								c1.154-1.031,2.846-1.554,5.027-1.554c1.709,0,3.274,0.162,4.652,0.481c0.835,0.193,1.544,0.392,2.14,0.6l0.462-1.369
								c-0.642-0.225-1.434-0.423-2.367-0.591c-1.404-0.253-2.99-0.381-4.712-0.381c-2.826,0-5.01,0.632-6.491,1.879
								c-1.45,1.221-2.155,2.843-2.155,4.96c0,1.494,0.314,2.722,0.933,3.651c0.659,0.988,1.494,1.83,2.483,2.503
								c1.04,0.707,2.186,1.318,3.406,1.817c1.32,0.54,2.562,1.127,3.69,1.744c1.186,0.648,2.195,1.409,3,2.261
								c0.912,0.967,1.374,2.213,1.374,3.704c0,1.052-0.229,1.989-0.681,2.784c-0.442,0.777-1.04,1.428-1.777,1.937
								c-0.719,0.497-1.578,0.86-2.552,1.078c-0.918,0.206-1.91,0.311-2.949,0.311c-1.727,0-3.311-0.192-4.71-0.571
								c-0.853-0.231-1.574-0.463-2.178-0.703L176.607,167.397z"/>
						</g>
						<g>
							<path d="M218.894,154.891h-14.798v14.137h-3.655v-30.829h3.655v13.433h14.798v-13.433h3.656v30.829h-3.656V154.891z"/>
							<path d="M223.55,170.028h-5.656v-14.137h-12.798v14.137h-5.655v-32.829h5.655v13.433h12.798v-13.433h5.656V170.028z
								 M219.894,168.028h1.656v-28.829h-1.656v13.433h-16.798v-13.433h-1.655v28.829h1.655v-14.137h16.798V168.028z"/>
						</g>
						<g>
							<path d="M228.76,153.614c0-5.138,1.086-9.08,3.259-11.825c2.173-2.745,5.27-4.118,9.293-4.118
								c2.172,0,4.052,0.382,5.637,1.146c1.586,0.764,2.899,1.843,3.942,3.237c1.042,1.395,1.813,3.068,2.311,5.021
								c0.499,1.953,0.749,4.133,0.749,6.54c0,5.138-1.094,9.08-3.281,11.825c-2.188,2.746-5.307,4.118-9.358,4.118
								c-2.143,0-4.001-0.382-5.571-1.145c-1.571-0.763-2.878-1.842-3.92-3.237c-1.043-1.395-1.814-3.068-2.313-5.021
								C229.009,158.202,228.76,156.021,228.76,153.614z M232.635,153.614c0,1.703,0.169,3.318,0.507,4.845
								c0.337,1.527,0.858,2.87,1.563,4.03c0.705,1.16,1.607,2.085,2.709,2.774c1.1,0.69,2.399,1.035,3.897,1.035
								c2.731,0,4.873-1.035,6.43-3.105c1.556-2.07,2.334-5.263,2.334-9.579c0-1.674-0.169-3.281-0.506-4.823
								c-0.338-1.542-0.866-2.892-1.586-4.052c-0.72-1.16-1.629-2.085-2.73-2.775c-1.101-0.689-2.415-1.035-3.941-1.035
								c-2.702,0-4.822,1.035-6.364,3.105C233.406,146.105,232.635,149.298,232.635,153.614z"/>
							<path d="M241.311,170.557c-2.286,0-4.308-0.419-6.009-1.246c-1.708-0.83-3.149-2.02-4.283-3.538
								c-1.116-1.493-1.951-3.3-2.48-5.372c-0.518-2.022-0.779-4.306-0.779-6.788c0-5.345,1.169-9.532,3.475-12.446
								c2.362-2.984,5.753-4.498,10.077-4.498c2.314,0,4.356,0.419,6.07,1.245c1.724,0.83,3.174,2.021,4.31,3.539
								c1.116,1.495,1.95,3.302,2.48,5.373c0.518,2.025,0.78,4.309,0.78,6.788c0,5.346-1.178,9.535-3.499,12.448
								C249.076,169.044,245.664,170.557,241.311,170.557z M241.311,138.67c-3.734,0-6.518,1.223-8.509,3.739
								c-2.02,2.551-3.043,6.321-3.043,11.205c0,2.314,0.241,4.432,0.717,6.292c0.464,1.816,1.186,3.388,2.145,4.669
								c0.941,1.26,2.138,2.247,3.556,2.937c1.427,0.693,3.154,1.044,5.135,1.044c3.766,0,6.57-1.224,8.576-3.741
								c2.033-2.551,3.063-6.32,3.063-11.202c0-2.312-0.241-4.429-0.718-6.292c-0.464-1.815-1.186-3.387-2.144-4.67
								c-0.941-1.258-2.145-2.245-3.575-2.935C245.072,139.023,243.322,138.67,241.311,138.67z M241.311,167.298
								c-1.683,0-3.172-0.4-4.429-1.188c-1.228-0.769-2.248-1.813-3.032-3.102c-0.76-1.249-1.326-2.708-1.686-4.334
								c-0.352-1.589-0.53-3.292-0.53-5.06c0-4.515,0.845-7.939,2.511-10.176c1.733-2.328,4.145-3.508,7.166-3.508
								c1.71,0,3.214,0.399,4.473,1.188c1.225,0.768,2.251,1.809,3.049,3.095c0.776,1.251,1.353,2.72,1.713,4.365
								c0.352,1.606,0.529,3.301,0.529,5.037c0,4.517-0.853,7.942-2.534,10.18C246.792,166.119,244.359,167.298,241.311,167.298z
								 M241.311,141.93c-2.388,0-4.208,0.884-5.563,2.703c-1.402,1.884-2.114,4.906-2.114,8.982c0,1.623,0.162,3.18,0.483,4.628
								c0.311,1.412,0.796,2.665,1.441,3.727c0.62,1.021,1.423,1.844,2.385,2.446c0.947,0.594,2.049,0.883,3.367,0.883
								c2.419,0,4.261-0.885,5.631-2.706c1.415-1.883,2.133-4.904,2.133-8.978c0-1.593-0.162-3.144-0.482-4.609
								c-0.313-1.422-0.803-2.681-1.459-3.738c-0.636-1.024-1.447-1.85-2.412-2.454C243.787,142.227,242.64,141.93,241.311,141.93z"
								/>
						</g>
					</g>
				</g>
			</g>
		</g>
		<g>
			<g>
				<g>
					<g>
						<g>
							<path d="M260.16,138.507c1.116-0.264,2.319-0.44,3.611-0.528c1.292-0.088,2.569-0.132,3.832-0.132
								c1.351,0,2.723,0.132,4.118,0.396c1.394,0.264,2.664,0.749,3.81,1.454c1.145,0.705,2.077,1.673,2.797,2.907
								c0.719,1.233,1.079,2.804,1.079,4.712c0,1.879-0.338,3.465-1.014,4.756c-0.676,1.292-1.571,2.342-2.687,3.149
								c-1.116,0.808-2.393,1.387-3.831,1.74c-1.44,0.352-2.922,0.528-4.448,0.528c-0.147,0-0.39,0-0.727,0
								c-0.338,0-0.691-0.007-1.058-0.022c-0.367-0.014-0.727-0.037-1.079-0.066c-0.353-0.029-0.602-0.059-0.748-0.088v11.715
								h-3.656V138.507z M267.691,141.018c-0.764,0-1.497,0.015-2.202,0.044c-0.704,0.029-1.263,0.103-1.673,0.22v12.772
								c0.146,0.059,0.381,0.096,0.704,0.11c0.323,0.015,0.661,0.03,1.013,0.044c0.352,0.015,0.69,0.022,1.014,0.022
								c0.322,0,0.557,0,0.704,0c0.998,0,1.989-0.095,2.973-0.287c0.983-0.19,1.872-0.535,2.665-1.035
								c0.793-0.499,1.432-1.204,1.916-2.114c0.484-0.91,0.727-2.07,0.727-3.479c0-1.204-0.228-2.209-0.683-3.017
								c-0.456-0.807-1.058-1.453-1.806-1.938c-0.749-0.484-1.594-0.829-2.532-1.035
								C269.57,141.121,268.631,141.018,267.691,141.018z"/>
							<path d="M264.816,170.028h-5.656v-32.312l0.77-0.182c1.166-0.276,2.436-0.462,3.773-0.553
								c2.739-0.186,5.432-0.246,8.204,0.279c1.509,0.286,2.904,0.819,4.148,1.585c1.281,0.789,2.336,1.884,3.136,3.254
								c0.807,1.383,1.216,3.138,1.216,5.216c0,2.034-0.379,3.79-1.128,5.22c-0.744,1.424-1.749,2.6-2.986,3.495
								c-1.214,0.879-2.62,1.519-4.179,1.901c-1.512,0.37-3.088,0.557-4.687,0.557h-0.727c-0.351,0-0.718-0.007-1.099-0.023
								c-0.265-0.01-0.527-0.024-0.786-0.042V170.028z M261.16,168.028h1.656v-11.939l1.199,0.244
								c0.123,0.025,0.333,0.047,0.63,0.072c0.34,0.028,0.685,0.05,1.036,0.064c0.357,0.015,0.694,0.021,1.02,0.021h0.727
								c1.438,0,2.854-0.168,4.211-0.5c1.306-0.32,2.477-0.852,3.482-1.579c0.983-0.712,1.786-1.655,2.387-2.802
								c0.597-1.141,0.899-2.585,0.899-4.293c0-1.719-0.317-3.135-0.943-4.209c-0.632-1.083-1.459-1.944-2.457-2.559
								c-1.035-0.637-2.203-1.082-3.472-1.323c-2.611-0.494-5.129-0.424-7.695-0.249c-0.938,0.064-1.836,0.178-2.68,0.339V168.028z
								 M267.251,155.23h-0.704c-0.337,0-0.69-0.007-1.057-0.023l-1.017-0.044c-0.444-0.02-0.772-0.077-1.031-0.182l-0.626-0.252
								v-14.201l0.726-0.207c0.492-0.141,1.115-0.225,1.905-0.258c1.645-0.068,3.484-0.105,5.276,0.286
								c1.054,0.231,2.017,0.625,2.862,1.172c0.882,0.572,1.599,1.34,2.134,2.286c0.538,0.957,0.812,2.137,0.812,3.509
								c0,1.569-0.284,2.897-0.844,3.949c-0.565,1.062-1.327,1.899-2.267,2.49c-0.894,0.563-1.905,0.957-3.007,1.17
								C269.375,155.128,268.31,155.23,267.251,155.23z M264.816,153.176l0.759,0.033c0.339,0.015,0.662,0.021,0.972,0.021h0.704
								c0.932,0,1.867-0.09,2.781-0.268c0.858-0.167,1.64-0.469,2.323-0.899c0.649-0.409,1.162-0.977,1.566-1.738
								c0.404-0.759,0.609-1.772,0.609-3.009c0-1.023-0.187-1.874-0.554-2.526c-0.379-0.67-0.862-1.19-1.478-1.589
								c-0.643-0.416-1.384-0.718-2.202-0.897c-1.624-0.354-3.28-0.304-4.766-0.242c-0.281,0.012-0.517,0.03-0.715,0.052V153.176z"
								/>
						</g>
					</g>
				</g>
			</g>
		</g>
	</g>
</g>
<g>
	<g>
		<g>
			<g>
				<g>
					<g>
						<g>
							<g>
								<path d="M164.247,275.881c0-1.093,0.231-1.931,0.693-2.515c0.462-0.584,1.121-0.876,1.976-0.876
									c0.462,0,0.862,0.081,1.199,0.244c0.337,0.162,0.617,0.392,0.838,0.689c0.222,0.296,0.385,0.652,0.492,1.067
									c0.106,0.415,0.159,0.879,0.159,1.391c0,1.093-0.232,1.932-0.698,2.515c-0.465,0.584-1.128,0.876-1.99,0.876
									c-0.456,0-0.851-0.081-1.185-0.243c-0.334-0.162-0.612-0.392-0.833-0.688c-0.222-0.297-0.385-0.652-0.492-1.068
									C164.3,276.856,164.247,276.394,164.247,275.881z M165.071,275.881c0,0.362,0.036,0.706,0.108,1.03
									c0.072,0.325,0.183,0.61,0.332,0.857c0.15,0.246,0.342,0.443,0.576,0.59c0.234,0.147,0.511,0.22,0.829,0.22
									c0.581,0,1.037-0.22,1.368-0.66c0.331-0.44,0.496-1.119,0.496-2.037c0-0.355-0.036-0.697-0.107-1.025
									c-0.072-0.328-0.185-0.615-0.338-0.861c-0.153-0.247-0.347-0.443-0.58-0.591c-0.234-0.146-0.514-0.22-0.838-0.22
									c-0.575,0-1.025,0.22-1.353,0.66C165.235,274.284,165.071,274.963,165.071,275.881z"/>
								<path d="M170.925,272.669c0.237-0.057,0.493-0.094,0.768-0.113c0.274-0.019,0.546-0.027,0.814-0.027
									c0.287,0,0.579,0.027,0.876,0.084c0.296,0.057,0.566,0.159,0.81,0.309c0.244,0.15,0.442,0.356,0.595,0.618
									c0.153,0.263,0.23,0.597,0.23,1.003c0,0.399-0.072,0.736-0.215,1.012c-0.143,0.274-0.334,0.497-0.571,0.669
									c-0.237,0.172-0.509,0.295-0.815,0.37c-0.306,0.075-0.622,0.112-0.946,0.112c-0.032,0-0.083,0-0.155,0
									c-0.072,0-0.147-0.001-0.225-0.005c-0.078-0.003-0.155-0.008-0.229-0.014c-0.075-0.006-0.128-0.013-0.159-0.018v2.491
									h-0.777V272.669z M172.527,273.202c-0.163,0-0.318,0.003-0.468,0.01c-0.15,0.006-0.269,0.021-0.356,0.047v2.716
									c0.031,0.013,0.081,0.02,0.15,0.023c0.068,0.003,0.14,0.007,0.215,0.01c0.075,0.003,0.146,0.004,0.215,0.004
									c0.069,0,0.119,0,0.15,0c0.212,0,0.423-0.02,0.632-0.06c0.209-0.04,0.398-0.113,0.566-0.22
									c0.169-0.106,0.305-0.256,0.408-0.45c0.103-0.193,0.154-0.44,0.154-0.739c0-0.256-0.048-0.47-0.145-0.642
									c-0.097-0.172-0.225-0.31-0.384-0.412c-0.159-0.104-0.339-0.177-0.539-0.221
									C172.926,273.225,172.727,273.202,172.527,273.202z"/>
								<path d="M176.161,272.603h3.568v0.693h-2.791v2.145h2.557v0.693h-2.557v2.332h2.838v0.693h-3.615V272.603z"/>
								<path d="M182.361,274.869l-0.506-0.945h-0.037l0.094,0.945v4.29h-0.731V272.5h0.412l3.138,4.374l0.487,0.899h0.047
									l-0.103-0.899v-4.271h0.73v6.659h-0.412L182.361,274.869z"/>
							</g>
						</g>
					</g>
				</g>
			</g>
		</g>
	</g>
</g>
</svg>
